<mxfile host="app.diagrams.net" modified="2022-03-13T13:25:32.382Z" agent="5.0 (Windows NT 10.0; Win64; x64) AppleWebKit/537.36 (KHTML, like Gecko) Chrome/99.0.4844.51 Safari/537.36" etag="xiBgcffUMlI1xZ34apBB" version="17.1.2" type="gitlab">
  <diagram id="jKJKzCLyJbS25vbbd36n" name="Page-1">
    <mxGraphModel dx="1422" dy="762" grid="1" gridSize="10" guides="1" tooltips="1" connect="1" arrows="1" fold="1" page="1" pageScale="1" pageWidth="1169" pageHeight="827" math="0" shadow="0">
      <root>
        <mxCell id="0" />
        <mxCell id="1" parent="0" />
        <mxCell id="4dyAXsL9m6srhnJTJZ7K-8" style="edgeStyle=orthogonalEdgeStyle;rounded=0;orthogonalLoop=1;jettySize=auto;html=1;exitX=1;exitY=0.5;exitDx=0;exitDy=0;entryX=1;entryY=0.5;entryDx=0;entryDy=0;spacingLeft=10;spacingBottom=-1;spacingRight=10;" parent="1" source="4dyAXsL9m6srhnJTJZ7K-22" target="4dyAXsL9m6srhnJTJZ7K-16" edge="1">
          <mxGeometry relative="1" as="geometry">
            <mxPoint x="490" y="480" as="sourcePoint" />
            <mxPoint x="450" y="280" as="targetPoint" />
            <Array as="points">
              <mxPoint x="600" y="475" />
              <mxPoint x="600" y="295" />
            </Array>
          </mxGeometry>
        </mxCell>
        <mxCell id="4dyAXsL9m6srhnJTJZ7K-9" value="Changes requested" style="edgeLabel;html=1;align=center;verticalAlign=middle;resizable=0;points=[];spacingLeft=10;spacingBottom=-1;spacingRight=10;" parent="4dyAXsL9m6srhnJTJZ7K-8" vertex="1" connectable="0">
          <mxGeometry x="0.0648" y="-1" relative="1" as="geometry">
            <mxPoint x="-61" y="36" as="offset" />
          </mxGeometry>
        </mxCell>
        <mxCell id="4dyAXsL9m6srhnJTJZ7K-13" style="edgeStyle=orthogonalEdgeStyle;rounded=0;orthogonalLoop=1;jettySize=auto;html=1;exitX=0;exitY=0.5;exitDx=0;exitDy=0;exitPerimeter=0;entryX=0;entryY=0.5;entryDx=0;entryDy=0;entryPerimeter=0;spacingLeft=10;spacingBottom=-1;spacingRight=10;" parent="1" source="4dyAXsL9m6srhnJTJZ7K-12" target="4dyAXsL9m6srhnJTJZ7K-17" edge="1">
          <mxGeometry relative="1" as="geometry">
            <mxPoint x="310" y="160" as="targetPoint" />
            <Array as="points">
              <mxPoint x="280" y="720" />
              <mxPoint x="280" y="170" />
            </Array>
          </mxGeometry>
        </mxCell>
        <mxCell id="4dyAXsL9m6srhnJTJZ7K-24" value="No" style="edgeLabel;html=1;align=center;verticalAlign=middle;resizable=0;points=[];spacingLeft=10;spacingBottom=-1;spacingRight=10;" parent="4dyAXsL9m6srhnJTJZ7K-13" vertex="1" connectable="0">
          <mxGeometry x="0.0939" relative="1" as="geometry">
            <mxPoint x="10" y="281" as="offset" />
          </mxGeometry>
        </mxCell>
        <mxCell id="4dyAXsL9m6srhnJTJZ7K-26" style="edgeStyle=orthogonalEdgeStyle;rounded=0;orthogonalLoop=1;jettySize=auto;html=1;exitX=1;exitY=0.5;exitDx=0;exitDy=0;exitPerimeter=0;entryX=0;entryY=0.5;entryDx=0;entryDy=0;spacingLeft=10;spacingBottom=-1;spacingRight=10;" parent="1" source="4dyAXsL9m6srhnJTJZ7K-12" target="4dyAXsL9m6srhnJTJZ7K-25" edge="1">
          <mxGeometry relative="1" as="geometry" />
        </mxCell>
        <mxCell id="4dyAXsL9m6srhnJTJZ7K-27" value="Yes" style="edgeLabel;html=1;align=center;verticalAlign=middle;resizable=0;points=[];spacingLeft=10;spacingBottom=-1;spacingRight=10;" parent="4dyAXsL9m6srhnJTJZ7K-26" vertex="1" connectable="0">
          <mxGeometry x="-0.2239" y="-1" relative="1" as="geometry">
            <mxPoint x="-15" y="-11" as="offset" />
          </mxGeometry>
        </mxCell>
        <mxCell id="4dyAXsL9m6srhnJTJZ7K-12" value="Sprint finished ?" style="strokeWidth=2;html=1;shape=mxgraph.flowchart.decision;whiteSpace=wrap;spacingLeft=10;spacingBottom=-1;spacingRight=10;" parent="1" vertex="1">
          <mxGeometry x="310" y="630" width="180" height="180" as="geometry" />
        </mxCell>
        <mxCell id="4dyAXsL9m6srhnJTJZ7K-19" style="edgeStyle=orthogonalEdgeStyle;rounded=0;orthogonalLoop=1;jettySize=auto;html=1;exitX=0.5;exitY=1;exitDx=0;exitDy=0;exitPerimeter=0;entryX=0.5;entryY=0;entryDx=0;entryDy=0;entryPerimeter=0;spacingLeft=10;spacingBottom=-1;spacingRight=10;" parent="1" source="4dyAXsL9m6srhnJTJZ7K-14" target="4dyAXsL9m6srhnJTJZ7K-17" edge="1">
          <mxGeometry relative="1" as="geometry" />
        </mxCell>
        <mxCell id="4dyAXsL9m6srhnJTJZ7K-14" value="Sprint start" style="strokeWidth=2;html=1;shape=mxgraph.flowchart.start_1;whiteSpace=wrap;spacingLeft=10;spacingBottom=-1;spacingRight=10;" parent="1" vertex="1">
          <mxGeometry x="350" y="30" width="100" height="60" as="geometry" />
        </mxCell>
        <mxCell id="4dyAXsL9m6srhnJTJZ7K-51" style="edgeStyle=orthogonalEdgeStyle;rounded=0;orthogonalLoop=1;jettySize=auto;html=1;exitX=0.5;exitY=1;exitDx=0;exitDy=0;entryX=0.5;entryY=0;entryDx=0;entryDy=0;spacingLeft=10;spacingBottom=-1;spacingRight=10;" parent="1" source="4dyAXsL9m6srhnJTJZ7K-16" target="4dyAXsL9m6srhnJTJZ7K-22" edge="1">
          <mxGeometry relative="1" as="geometry" />
        </mxCell>
        <mxCell id="4dyAXsL9m6srhnJTJZ7K-16" value="&lt;font color=&quot;#6666ff&quot;&gt;Development on feature branch&lt;/font&gt;" style="rounded=1;whiteSpace=wrap;html=1;absoluteArcSize=1;arcSize=14;strokeWidth=2;spacingLeft=10;spacingBottom=-1;spacingRight=10;" parent="1" vertex="1">
          <mxGeometry x="350" y="270" width="100" height="50" as="geometry" />
        </mxCell>
        <mxCell id="4dyAXsL9m6srhnJTJZ7K-20" style="edgeStyle=orthogonalEdgeStyle;rounded=0;orthogonalLoop=1;jettySize=auto;html=1;exitX=0.5;exitY=1;exitDx=0;exitDy=0;exitPerimeter=0;entryX=0.5;entryY=0;entryDx=0;entryDy=0;spacingLeft=10;spacingBottom=-1;spacingRight=10;" parent="1" source="4dyAXsL9m6srhnJTJZ7K-17" target="4dyAXsL9m6srhnJTJZ7K-16" edge="1">
          <mxGeometry relative="1" as="geometry">
            <mxPoint x="400" y="250" as="targetPoint" />
          </mxGeometry>
        </mxCell>
        <mxCell id="4dyAXsL9m6srhnJTJZ7K-17" value="New feature" style="strokeWidth=2;html=1;shape=mxgraph.flowchart.start_1;whiteSpace=wrap;spacingLeft=10;spacingBottom=-1;spacingRight=10;" parent="1" vertex="1">
          <mxGeometry x="350" y="140" width="100" height="60" as="geometry" />
        </mxCell>
        <mxCell id="4dyAXsL9m6srhnJTJZ7K-53" style="edgeStyle=orthogonalEdgeStyle;rounded=0;orthogonalLoop=1;jettySize=auto;html=1;exitX=0.5;exitY=1;exitDx=0;exitDy=0;entryX=0.5;entryY=0;entryDx=0;entryDy=0;entryPerimeter=0;spacingLeft=10;spacingBottom=-1;spacingRight=10;" parent="1" source="4dyAXsL9m6srhnJTJZ7K-22" target="4dyAXsL9m6srhnJTJZ7K-52" edge="1">
          <mxGeometry relative="1" as="geometry" />
        </mxCell>
        <mxCell id="4dyAXsL9m6srhnJTJZ7K-22" value="- &lt;font color=&quot;#6666ff&quot;&gt;Merge request on&amp;nbsp; dev/&amp;lt;part&amp;gt;&lt;/font&gt;&lt;br&gt;- &lt;font color=&quot;#009900&quot;&gt;ci-tests&lt;/font&gt;&lt;br&gt;- &lt;font color=&quot;#ff8000&quot;&gt;peer-review&lt;/font&gt;" style="rounded=1;whiteSpace=wrap;html=1;absoluteArcSize=1;arcSize=14;strokeWidth=2;spacingLeft=10;spacingBottom=-1;spacingRight=10;" parent="1" vertex="1">
          <mxGeometry x="295" y="430" width="210" height="90" as="geometry" />
        </mxCell>
        <mxCell id="4dyAXsL9m6srhnJTJZ7K-34" style="edgeStyle=orthogonalEdgeStyle;rounded=0;orthogonalLoop=1;jettySize=auto;html=1;exitX=0.5;exitY=0;exitDx=0;exitDy=0;entryX=0.5;entryY=1;entryDx=0;entryDy=0;entryPerimeter=0;spacingLeft=10;spacingBottom=-1;spacingRight=10;" parent="1" source="4dyAXsL9m6srhnJTJZ7K-25" target="4dyAXsL9m6srhnJTJZ7K-33" edge="1">
          <mxGeometry relative="1" as="geometry" />
        </mxCell>
        <mxCell id="4dyAXsL9m6srhnJTJZ7K-35" style="edgeStyle=orthogonalEdgeStyle;rounded=0;orthogonalLoop=1;jettySize=auto;html=1;exitX=1;exitY=0.5;exitDx=0;exitDy=0;entryX=0;entryY=0.5;entryDx=0;entryDy=0;spacingLeft=10;spacingBottom=-1;spacingRight=10;" parent="1" source="4dyAXsL9m6srhnJTJZ7K-25" target="4dyAXsL9m6srhnJTJZ7K-31" edge="1">
          <mxGeometry relative="1" as="geometry" />
        </mxCell>
        <mxCell id="4dyAXsL9m6srhnJTJZ7K-25" value="- &lt;font color=&quot;#ff3333&quot;&gt;Merge request on&amp;nbsp;dev branch&lt;/font&gt;&lt;br&gt;- &lt;font color=&quot;#009900&quot;&gt;quality-review&lt;/font&gt;" style="rounded=1;whiteSpace=wrap;html=1;absoluteArcSize=1;arcSize=14;strokeWidth=2;spacingLeft=10;spacingBottom=-1;spacingRight=10;" parent="1" vertex="1">
          <mxGeometry x="586.25" y="675" width="277.5" height="90" as="geometry" />
        </mxCell>
        <mxCell id="4dyAXsL9m6srhnJTJZ7K-29" style="edgeStyle=orthogonalEdgeStyle;rounded=0;orthogonalLoop=1;jettySize=auto;html=1;exitX=0.5;exitY=0;exitDx=0;exitDy=0;exitPerimeter=0;entryX=0.5;entryY=0;entryDx=0;entryDy=0;entryPerimeter=0;spacingLeft=10;spacingBottom=-1;spacingRight=10;" parent="1" source="4dyAXsL9m6srhnJTJZ7K-28" target="4dyAXsL9m6srhnJTJZ7K-14" edge="1">
          <mxGeometry relative="1" as="geometry" />
        </mxCell>
        <mxCell id="4dyAXsL9m6srhnJTJZ7K-28" value="Project start" style="strokeWidth=2;html=1;shape=mxgraph.flowchart.start_1;whiteSpace=wrap;spacingLeft=10;spacingBottom=-1;spacingRight=10;" parent="1" vertex="1">
          <mxGeometry x="610" y="30" width="100" height="60" as="geometry" />
        </mxCell>
        <mxCell id="4dyAXsL9m6srhnJTJZ7K-30" value="Project end" style="strokeWidth=2;html=1;shape=mxgraph.flowchart.terminator;whiteSpace=wrap;spacingLeft=10;spacingBottom=-1;spacingRight=10;" parent="1" vertex="1">
          <mxGeometry x="755" y="30" width="100" height="60" as="geometry" />
        </mxCell>
        <mxCell id="4dyAXsL9m6srhnJTJZ7K-36" style="edgeStyle=orthogonalEdgeStyle;rounded=0;orthogonalLoop=1;jettySize=auto;html=1;exitX=0.5;exitY=0;exitDx=0;exitDy=0;spacingLeft=10;spacingBottom=-1;spacingRight=10;" parent="1" source="4dyAXsL9m6srhnJTJZ7K-31" target="4dyAXsL9m6srhnJTJZ7K-32" edge="1">
          <mxGeometry relative="1" as="geometry" />
        </mxCell>
        <mxCell id="4dyAXsL9m6srhnJTJZ7K-73" style="edgeStyle=orthogonalEdgeStyle;rounded=0;orthogonalLoop=1;jettySize=auto;html=1;exitX=1;exitY=0.5;exitDx=0;exitDy=0;fontColor=#FF33FF;entryX=0.5;entryY=1;entryDx=0;entryDy=0;entryPerimeter=0;" parent="1" source="4dyAXsL9m6srhnJTJZ7K-31" target="4dyAXsL9m6srhnJTJZ7K-42" edge="1">
          <mxGeometry relative="1" as="geometry">
            <mxPoint x="1120" y="400" as="targetPoint" />
          </mxGeometry>
        </mxCell>
        <mxCell id="4dyAXsL9m6srhnJTJZ7K-31" value="&lt;font color=&quot;#009900&quot;&gt;Functional tests&lt;/font&gt;" style="rounded=1;whiteSpace=wrap;html=1;absoluteArcSize=1;arcSize=14;strokeWidth=2;spacingLeft=10;spacingBottom=-1;spacingRight=10;" parent="1" vertex="1">
          <mxGeometry x="895" y="675" width="140" height="90" as="geometry" />
        </mxCell>
        <mxCell id="4dyAXsL9m6srhnJTJZ7K-39" style="edgeStyle=orthogonalEdgeStyle;rounded=0;orthogonalLoop=1;jettySize=auto;html=1;exitX=0.5;exitY=0;exitDx=0;exitDy=0;exitPerimeter=0;entryX=1;entryY=0.5;entryDx=0;entryDy=0;spacingLeft=10;spacingBottom=-1;spacingRight=10;" parent="1" source="4dyAXsL9m6srhnJTJZ7K-32" target="4dyAXsL9m6srhnJTJZ7K-37" edge="1">
          <mxGeometry relative="1" as="geometry" />
        </mxCell>
        <mxCell id="4dyAXsL9m6srhnJTJZ7K-32" value="Test fails?" style="strokeWidth=2;html=1;shape=mxgraph.flowchart.decision;whiteSpace=wrap;spacingLeft=10;spacingBottom=-1;spacingRight=10;" parent="1" vertex="1">
          <mxGeometry x="915" y="470" width="100" height="100" as="geometry" />
        </mxCell>
        <mxCell id="4dyAXsL9m6srhnJTJZ7K-38" style="edgeStyle=orthogonalEdgeStyle;rounded=0;orthogonalLoop=1;jettySize=auto;html=1;exitX=0.5;exitY=0;exitDx=0;exitDy=0;exitPerimeter=0;entryX=0;entryY=0.5;entryDx=0;entryDy=0;spacingLeft=10;spacingBottom=-1;spacingRight=10;" parent="1" source="4dyAXsL9m6srhnJTJZ7K-33" target="4dyAXsL9m6srhnJTJZ7K-37" edge="1">
          <mxGeometry relative="1" as="geometry" />
        </mxCell>
        <mxCell id="4dyAXsL9m6srhnJTJZ7K-40" value="Yes" style="edgeLabel;html=1;align=center;verticalAlign=middle;resizable=0;points=[];spacingLeft=10;spacingBottom=-1;spacingRight=10;" parent="4dyAXsL9m6srhnJTJZ7K-38" vertex="1" connectable="0">
          <mxGeometry x="0.0886" y="-1" relative="1" as="geometry">
            <mxPoint y="-16" as="offset" />
          </mxGeometry>
        </mxCell>
        <mxCell id="4dyAXsL9m6srhnJTJZ7K-33" value="Changes requested" style="strokeWidth=2;html=1;shape=mxgraph.flowchart.decision;whiteSpace=wrap;spacingLeft=10;spacingBottom=-1;spacingRight=10;" parent="1" vertex="1">
          <mxGeometry x="675" y="470" width="100" height="100" as="geometry" />
        </mxCell>
        <mxCell id="4dyAXsL9m6srhnJTJZ7K-37" value="&lt;font color=&quot;#ff33ff&quot;&gt;New task for next sprint&lt;/font&gt;" style="rounded=1;whiteSpace=wrap;html=1;absoluteArcSize=1;arcSize=14;strokeWidth=2;spacingLeft=10;spacingBottom=-1;spacingRight=10;" parent="1" vertex="1">
          <mxGeometry x="805" y="380" width="100" height="60" as="geometry" />
        </mxCell>
        <mxCell id="4dyAXsL9m6srhnJTJZ7K-41" value="Yes" style="edgeLabel;html=1;align=center;verticalAlign=middle;resizable=0;points=[];spacingLeft=10;spacingBottom=-1;spacingRight=10;" parent="1" vertex="1" connectable="0">
          <mxGeometry x="775" y="414" as="geometry">
            <mxPoint x="175" y="-24" as="offset" />
          </mxGeometry>
        </mxCell>
        <mxCell id="4dyAXsL9m6srhnJTJZ7K-47" style="edgeStyle=orthogonalEdgeStyle;rounded=0;orthogonalLoop=1;jettySize=auto;html=1;exitX=0;exitY=0.5;exitDx=0;exitDy=0;exitPerimeter=0;entryX=1;entryY=0.5;entryDx=0;entryDy=0;entryPerimeter=0;spacingLeft=10;spacingBottom=-1;spacingRight=10;" parent="1" source="4dyAXsL9m6srhnJTJZ7K-42" target="4dyAXsL9m6srhnJTJZ7K-44" edge="1">
          <mxGeometry relative="1" as="geometry" />
        </mxCell>
        <mxCell id="4dyAXsL9m6srhnJTJZ7K-76" style="edgeStyle=orthogonalEdgeStyle;rounded=0;orthogonalLoop=1;jettySize=auto;html=1;exitX=0.5;exitY=0;exitDx=0;exitDy=0;exitPerimeter=0;entryX=0.5;entryY=1;entryDx=0;entryDy=0;entryPerimeter=0;fontColor=#FF33FF;" parent="1" source="4dyAXsL9m6srhnJTJZ7K-42" target="4dyAXsL9m6srhnJTJZ7K-75" edge="1">
          <mxGeometry relative="1" as="geometry" />
        </mxCell>
        <mxCell id="4dyAXsL9m6srhnJTJZ7K-42" value="Sprint end" style="strokeWidth=2;html=1;shape=mxgraph.flowchart.terminator;whiteSpace=wrap;spacingLeft=10;spacingBottom=-1;spacingRight=10;" parent="1" vertex="1">
          <mxGeometry x="1065" y="210" width="100" height="60" as="geometry" />
        </mxCell>
        <mxCell id="4dyAXsL9m6srhnJTJZ7K-45" style="edgeStyle=orthogonalEdgeStyle;rounded=0;orthogonalLoop=1;jettySize=auto;html=1;exitX=0.5;exitY=0;exitDx=0;exitDy=0;exitPerimeter=0;entryX=0.5;entryY=1;entryDx=0;entryDy=0;entryPerimeter=0;spacingLeft=10;spacingBottom=-1;spacingRight=10;" parent="1" source="4dyAXsL9m6srhnJTJZ7K-44" target="4dyAXsL9m6srhnJTJZ7K-30" edge="1">
          <mxGeometry relative="1" as="geometry" />
        </mxCell>
        <mxCell id="4dyAXsL9m6srhnJTJZ7K-46" value="Yes" style="edgeLabel;html=1;align=center;verticalAlign=middle;resizable=0;points=[];spacingLeft=10;spacingBottom=-1;spacingRight=10;" parent="4dyAXsL9m6srhnJTJZ7K-45" vertex="1" connectable="0">
          <mxGeometry x="-0.7519" relative="1" as="geometry">
            <mxPoint x="10" as="offset" />
          </mxGeometry>
        </mxCell>
        <mxCell id="4dyAXsL9m6srhnJTJZ7K-48" style="edgeStyle=orthogonalEdgeStyle;rounded=0;orthogonalLoop=1;jettySize=auto;html=1;exitX=0;exitY=0.5;exitDx=0;exitDy=0;exitPerimeter=0;entryX=1;entryY=0.5;entryDx=0;entryDy=0;entryPerimeter=0;spacingLeft=10;spacingBottom=-1;spacingRight=10;" parent="1" source="4dyAXsL9m6srhnJTJZ7K-44" target="4dyAXsL9m6srhnJTJZ7K-14" edge="1">
          <mxGeometry relative="1" as="geometry">
            <Array as="points">
              <mxPoint x="580" y="240" />
              <mxPoint x="580" y="60" />
            </Array>
          </mxGeometry>
        </mxCell>
        <mxCell id="4dyAXsL9m6srhnJTJZ7K-49" value="No" style="edgeLabel;html=1;align=center;verticalAlign=middle;resizable=0;points=[];spacingLeft=10;spacingBottom=-1;spacingRight=10;" parent="4dyAXsL9m6srhnJTJZ7K-48" vertex="1" connectable="0">
          <mxGeometry x="-0.8594" y="1" relative="1" as="geometry">
            <mxPoint x="-5" y="-11" as="offset" />
          </mxGeometry>
        </mxCell>
        <mxCell id="4dyAXsL9m6srhnJTJZ7K-44" value="Last sprint?" style="strokeWidth=2;html=1;shape=mxgraph.flowchart.decision;whiteSpace=wrap;spacingLeft=10;spacingBottom=-1;spacingRight=10;" parent="1" vertex="1">
          <mxGeometry x="755" y="190" width="100" height="100" as="geometry" />
        </mxCell>
        <mxCell id="4dyAXsL9m6srhnJTJZ7K-54" style="edgeStyle=orthogonalEdgeStyle;rounded=0;orthogonalLoop=1;jettySize=auto;html=1;exitX=0.5;exitY=1;exitDx=0;exitDy=0;exitPerimeter=0;entryX=0.5;entryY=0;entryDx=0;entryDy=0;entryPerimeter=0;spacingLeft=10;spacingBottom=-1;spacingRight=10;" parent="1" source="4dyAXsL9m6srhnJTJZ7K-52" target="4dyAXsL9m6srhnJTJZ7K-12" edge="1">
          <mxGeometry relative="1" as="geometry" />
        </mxCell>
        <mxCell id="4dyAXsL9m6srhnJTJZ7K-52" value="Feature completed" style="strokeWidth=2;html=1;shape=mxgraph.flowchart.terminator;whiteSpace=wrap;spacingLeft=10;spacingBottom=-1;spacingRight=10;" parent="1" vertex="1">
          <mxGeometry x="350" y="540" width="100" height="60" as="geometry" />
        </mxCell>
        <mxCell id="4dyAXsL9m6srhnJTJZ7K-55" value="&lt;h1&gt;&lt;span&gt;Development workflow&lt;/span&gt;&lt;/h1&gt;&lt;h1&gt;&lt;span style=&quot;font-size: 12px&quot;&gt;PRO-2022-G01&lt;br&gt;&lt;span style=&quot;font-weight: normal&quot;&gt;This document describes the proposed development workflow. It integrates the usage of versionning with branching and agile development using sprints.&lt;/span&gt;&lt;/span&gt;&lt;/h1&gt;&lt;div&gt;&lt;span style=&quot;font-size: 12px ; font-weight: normal&quot;&gt;&lt;i&gt;Last update on 2022-03-11, V1.0&lt;/i&gt;&lt;/span&gt;&lt;/div&gt;" style="text;html=1;strokeColor=default;fillColor=none;spacing=5;spacingTop=-20;whiteSpace=wrap;overflow=hidden;rounded=1;spacingLeft=10;spacingBottom=-1;spacingRight=10;" parent="1" vertex="1">
          <mxGeometry x="10" y="10" width="260" height="300" as="geometry" />
        </mxCell>
        <mxCell id="4dyAXsL9m6srhnJTJZ7K-56" value="Legend&amp;nbsp; of personas working on specific actions&lt;br&gt;" style="text;html=1;strokeColor=none;fillColor=none;align=left;verticalAlign=top;whiteSpace=wrap;rounded=0;" parent="1" vertex="1">
          <mxGeometry x="20" y="520" width="220" height="40" as="geometry" />
        </mxCell>
        <mxCell id="4dyAXsL9m6srhnJTJZ7K-57" value="- &lt;font color=&quot;#6666ff&quot;&gt;Developer&lt;/font&gt;" style="text;html=1;strokeColor=none;fillColor=none;align=left;verticalAlign=top;whiteSpace=wrap;rounded=0;" parent="1" vertex="1">
          <mxGeometry x="20" y="560" width="150" height="30" as="geometry" />
        </mxCell>
        <mxCell id="4dyAXsL9m6srhnJTJZ7K-58" value="- &lt;font color=&quot;#ff8000&quot;&gt;Backend or frontend development team&amp;nbsp; &amp;nbsp; &amp;nbsp; &amp;nbsp; members&lt;/font&gt;" style="text;html=1;strokeColor=none;fillColor=none;align=left;verticalAlign=top;whiteSpace=wrap;rounded=0;" parent="1" vertex="1">
          <mxGeometry x="20" y="590" width="250" height="50" as="geometry" />
        </mxCell>
        <mxCell id="4dyAXsL9m6srhnJTJZ7K-60" value="- &lt;font color=&quot;#009900&quot;&gt;Quality control&lt;/font&gt;" style="text;html=1;strokeColor=none;fillColor=none;align=left;verticalAlign=top;whiteSpace=wrap;rounded=0;" parent="1" vertex="1">
          <mxGeometry x="20" y="670" width="150" height="30" as="geometry" />
        </mxCell>
        <mxCell id="4dyAXsL9m6srhnJTJZ7K-67" value="Merge request process:&lt;br&gt;&lt;font color=&quot;#6666ff&quot;&gt;Merge initiated&lt;/font&gt;&lt;br&gt;&lt;font color=&quot;#ff8000&quot;&gt;Merge approved&lt;br&gt;&lt;/font&gt;&lt;font color=&quot;#ff33ff&quot;&gt;Merge performed&lt;/font&gt;" style="shape=note2;boundedLbl=1;whiteSpace=wrap;html=1;size=10;verticalAlign=top;align=center;rounded=1;strokeColor=default;" parent="1" vertex="1">
          <mxGeometry x="722.5" y="740" width="165" height="120" as="geometry" />
        </mxCell>
        <mxCell id="4dyAXsL9m6srhnJTJZ7K-68" value="- &lt;font color=&quot;#ff33ff&quot;&gt;Project manager&lt;/font&gt;" style="text;html=1;strokeColor=none;fillColor=none;align=left;verticalAlign=top;whiteSpace=wrap;rounded=0;" parent="1" vertex="1">
          <mxGeometry x="20" y="700" width="150" height="30" as="geometry" />
        </mxCell>
        <mxCell id="4dyAXsL9m6srhnJTJZ7K-69" value="- &lt;font&gt;Develpers in general&lt;/font&gt;" style="text;html=1;strokeColor=none;fillColor=none;align=left;verticalAlign=top;whiteSpace=wrap;rounded=0;fontColor=#FF3333;" parent="1" vertex="1">
          <mxGeometry x="20" y="640" width="180" height="30" as="geometry" />
        </mxCell>
        <mxCell id="4dyAXsL9m6srhnJTJZ7K-77" style="edgeStyle=orthogonalEdgeStyle;rounded=0;orthogonalLoop=1;jettySize=auto;html=1;exitX=0;exitY=0.5;exitDx=0;exitDy=0;exitPerimeter=0;fontColor=#FF33FF;entryX=1;entryY=0.5;entryDx=0;entryDy=0;" parent="1" source="4dyAXsL9m6srhnJTJZ7K-75" target="4dyAXsL9m6srhnJTJZ7K-79" edge="1">
          <mxGeometry relative="1" as="geometry">
            <mxPoint x="960" y="90" as="targetPoint" />
          </mxGeometry>
        </mxCell>
        <mxCell id="4dyAXsL9m6srhnJTJZ7K-78" value="&lt;font color=&quot;#000000&quot;&gt;Yes&lt;/font&gt;" style="edgeLabel;html=1;align=center;verticalAlign=middle;resizable=0;points=[];fontColor=#FF33FF;" parent="4dyAXsL9m6srhnJTJZ7K-77" vertex="1" connectable="0">
          <mxGeometry x="-0.1613" y="-2" relative="1" as="geometry">
            <mxPoint x="19" y="-8" as="offset" />
          </mxGeometry>
        </mxCell>
        <mxCell id="4dyAXsL9m6srhnJTJZ7K-75" value="Release ?" style="strokeWidth=2;html=1;shape=mxgraph.flowchart.decision;whiteSpace=wrap;spacingLeft=10;spacingBottom=-1;spacingRight=10;" parent="1" vertex="1">
          <mxGeometry x="1065" y="40" width="100" height="100" as="geometry" />
        </mxCell>
        <mxCell id="4dyAXsL9m6srhnJTJZ7K-79" value="&lt;font color=&quot;#ff33ff&quot;&gt;Merge on main&lt;/font&gt;" style="rounded=1;whiteSpace=wrap;html=1;absoluteArcSize=1;arcSize=14;strokeWidth=2;spacingLeft=10;spacingBottom=-1;spacingRight=10;" parent="1" vertex="1">
          <mxGeometry x="887.5" y="65" width="85" height="50" as="geometry" />
        </mxCell>
      </root>
    </mxGraphModel>
  </diagram>
</mxfile>
